<svg aria-hidden="true" style="position: absolute; width: 0; height: 0; overflow: hidden;" version="1.1" xmlns="http://www.w3.org/2000/svg" xmlns:xlink="http://www.w3.org/1999/xlink">
<defs>
<symbol id="icon-key-directions-1" viewBox="0 0 32 32">
<path d="M16.246 0.262l15.294 10.147c0.134 0.086 0.221 0.234 0.222 0.403v10.3c0 0.001 0 0.001 0 0.002 0 0.1-0.031 0.192-0.084 0.268v0c-0.037 0.054-0.082 0.098-0.136 0.131l-0.002 0.001-0.007 0.004-15.295 10.151c-0.071 0.049-0.16 0.079-0.255 0.079-0.003 0-0.005 0-0.008 0v0c-0.001 0-0.001 0-0.002 0-0.097 0-0.186-0.030-0.26-0.082l0.001 0.001-0.006-0.004-15.281-10.141c-0.159-0.106-0.237-0.235-0.237-0.427v-10.283c0-0.002 0-0.005 0-0.007 0-0.095 0.029-0.183 0.079-0.255l-0.001 0.002c0.035-0.052 0.079-0.095 0.13-0.129l0.015-0.009 15.302-10.155c0.13-0.090 0.393-0.091 0.526 0.001l0.006 0.003zM23.582 15.361l6.859-4.551-13.998-9.286v9.036l7.139 4.801zM15.506 10.559v-9.036l-13.994 9.288 6.855 4.549 7.139-4.8zM7.525 15.93l-6.391-4.243v8.543l6.391-4.299zM1.506 21.113l14 9.287v-9.171l-7.136-4.735-6.864 4.619zM9.218 15.923l6.755 4.487 6.762-4.487-6.762-4.546-6.755 4.546zM16.445 21.226v9.174l13.998-9.289-6.86-4.619-7.138 4.734zM24.427 15.93l6.393 4.298v-8.542l-6.394 4.243z"></path>
</symbol>
<symbol id="icon-key-directions-2" viewBox="0 0 37 32">
<path d="M30.65 8.114h-8.749v-1.77h8.749v1.77z"></path>
<path d="M6.748 30.539v-7.662h-3.934c-1.553-0.003-2.811-1.261-2.814-2.814v-15.263c0-2.645 2.155-4.8 4.8-4.8h27.801c2.646 0 4.8 2.155 4.8 4.8v15.263c-0.003 1.553-1.261 2.811-2.814 2.814h-3.938v7.662c0 0.731-0.597 1.328-1.328 1.328h-21.247c-0.733-0.002-1.326-0.595-1.328-1.328v0zM30.65 14.264v6.956h5.095v-16.419c-0.001-1.736-1.408-3.142-3.143-3.143h-27.801c-1.735 0.002-3.142 1.408-3.143 3.143v16.42h5.091v-6.956c0-0.732 0.596-1.328 1.328-1.328h21.246c0.732 0 1.328 0.596 1.328 1.328zM8.28 14.468v15.866h20.84l-0.003-15.867h-20.837z"></path>
<path d="M15.296 22.786l1.702 2.269 3.404-4.539 4.426 5.901h-12.255l2.723-3.631z"></path>
</symbol>
<symbol id="icon-key-directions-3" viewBox="0 0 32 32">
<path d="M6.971 16.971h8.057v1.39h-8.057v-1.39zM6.971 23.638h8.057v1.39h-8.057v-1.39z"></path>
<path d="M29.333 21.695h-7.638v7.638c-0.002 1.304-1.058 2.36-2.362 2.362h-16.666c-1.304-0.002-2.36-1.058-2.362-2.362v-16.666c0.002-1.304 1.058-2.36 2.362-2.362h7.638v-7.638c0.002-1.304 1.058-2.36 2.361-2.362h16.667c1.304 0.002 2.36 1.058 2.362 2.362v16.666c-0.002 1.304-1.058 2.36-2.362 2.362v0zM1.695 11.695v18.609h18.613l-0.003-18.61h-18.609zM21.695 20.305h8.609v-18.609h-18.609v8.609h7.638c1.304 0.002 2.36 1.058 2.362 2.361v7.638z"></path>
</symbol>
<symbol id="icon-key-directions-4" viewBox="0 0 34 32">
<path d="M7.366 7.316h1.191v15.557h-1.191v-15.557zM18.181 7.316h1.22v15.557h-1.22v-15.557z"></path>
<path d="M26.445 1.006v4.548h4.548c1.378 0.002 2.494 1.118 2.496 2.496v14.088c-0.002 1.377-1.119 2.493-2.496 2.495h-4.548v2.788c0 2.346-1.911 4.257-4.257 4.257h-17.61c-2.346 0-4.257-1.911-4.257-4.257v-26.415c0-0.406 0.328-0.735 0.735-0.735h24.654c0.406 0 0.735 0.329 0.735 0.735zM24.976 27.422v-25.68h-23.185v25.68c0.001 1.539 1.248 2.786 2.787 2.787h17.61c1.539-0.001 2.786-1.248 2.788-2.787v0zM26.445 23.165h5.575v-16.141h-5.575v16.141z"></path>
</symbol>
<symbol id="icon-key-directions-5" viewBox="0 0 35 32">
<path d="M7.655 16.753h5.186v1.527h-5.186v-1.527z"></path>
<path d="M32.209 25.6h-9.453l3.934 5.245-1.222 0.916-4.621-6.162h-6.557l-4.621 6.162-1.222-0.916 3.934-5.245h-9.453c-1.431-0.002-2.591-1.162-2.594-2.593v-20.131c0.002-1.432 1.162-2.592 2.594-2.594h29.281c1.432 0.002 2.592 1.162 2.594 2.594v20.131c-0.002 1.431-1.162 2.591-2.594 2.593v0zM1.862 1.81v22.264h31.416l-0.002-22.264h-31.414z"></path>
</symbol>
<symbol id="icon-key-directions-6" viewBox="0 0 36 32">
<path d="M21.822 16.077c0 0 0 0 0.001 0 1.089 0 1.972-0.883 1.972-1.972v-1.848h-3.944v1.848c0 1.089 0.883 1.972 1.972 1.972 0 0 0 0 0.001 0v0z"></path>
<path d="M11.25 0.814l-0.124 0.040c-2.382 0.77-7.058 2.303-9.331 3.047l-0.121 0.040c-0.691 0.232-1.18 0.874-1.18 1.63 0 0.003 0 0.006 0 0.009v0 6.423c0 0 0 0 0 0.001 0 0.954 0.774 1.728 1.728 1.728 0.149 0 0.293-0.019 0.431-0.054l4.755-1.188v17.394c0 0 0 0 0 0.001 0 0.954 0.774 1.728 1.728 1.728 0 0 0 0 0 0h17.284c0 0 0 0 0.001 0 0.954 0 1.728-0.774 1.728-1.728 0 0 0 0 0-0.001v0-17.394l4.767 1.191c1.090 0.273 2.146-0.552 2.146-1.677v-6.423c0-0.747-0.47-1.406-1.182-1.639-2.222-0.729-7.025-2.303-9.451-3.087l-0.124-0.040c-0.791-0.255-1.301-0.418-1.339-0.424h-0.002c0 0.51-0.073 1.001-0.21 1.466l-0.005 0.015c-0.659 2.16-2.635 3.704-4.97 3.704s-4.311-1.544-4.961-3.667l-0.010-0.037-0.005-0.015c-0.133-0.437-0.21-0.94-0.21-1.46 0-0.002 0-0.004 0-0.006v0h-0.002c-0.039 0.006-0.549 0.169-1.339 0.424zM26.821 3.19c40.803 11.934 42.996 12.669 45.189 13.405l-38.591-11.247c0.095 0.031 0.162 0.119 0.162 0.223 0 0.003 0 0.006 0 0.009v0 6.423c0 0.162-0.151 0.279-0.305 0.239l-6.608-1.651v19.292c0 0.137-0.11 0.247-0.247 0.247h-17.284c0 0 0 0 0 0-0.136 0-0.247-0.11-0.247-0.247 0 0 0 0 0-0.001v0-19.292l-6.609 1.651c-0.018 0.005-0.038 0.007-0.059 0.007-0.136 0-0.246-0.11-0.247-0.246v0-6.423c0-0.116 0.068-0.2 0.161-0.231l0.122-0.040c1.543-0.505 4.19-1.372 6.476-2.119 0.997-0.326 1.925-0.628 2.661-0.866 0.83 2.739 3.372 4.732 6.382 4.732s5.553-1.993 6.382-4.732c0.737 0.239 1.664 0.541 2.661 0.866z"></path>
</symbol>
<symbol id="icon-key-directions-7" viewBox="0 0 32 32">
<path d="M10.029 21.834c0 0.844-0.684 1.529-1.529 1.529s-1.529-0.684-1.529-1.529v0c0-0.844 0.684-1.529 1.529-1.529s1.529 0.684 1.529 1.529v0zM25.029 21.834c0 0.844-0.684 1.529-1.529 1.529s-1.529-0.684-1.529-1.529v0c0-0.844 0.684-1.529 1.529-1.529s1.529 0.684 1.529 1.529v0z"></path>
<path d="M30.035 6v4.175l0.879 0.084c0.17 0.017 0.328 0.055 0.453 0.123 0.107 0.059 0.211 0.15 0.288 0.334 0.040 0.098 0.057 0.206 0.049 0.317l-0.003 0.035v3.265c0 0.384-0.311 0.695-0.695 0.695h-0.971v10.971c0 0.862-0.473 1.617-1.19 2.034l-0.483 0.281v2.686c0 0.385-0.31 0.695-0.695 0.695h-1.666c0 0-0.001 0-0.002 0-0.383 0-0.694-0.311-0.694-0.694 0-0.001 0-0.001 0-0.002v0-2.638h-18.609v2.638c0 0.385-0.31 0.695-0.695 0.695h-1.667c0 0-0.001 0-0.001 0-0.383 0-0.694-0.311-0.694-0.694 0-0.001 0-0.001 0-0.002v0-2.689l-0.48-0.282c-0.711-0.418-1.18-1.172-1.18-2.029v-10.971h-0.978c0 0 0 0-0.001 0-0.384 0-0.695-0.311-0.695-0.695 0 0 0 0 0-0.001v0-3.333c0-0.365 0.278-0.665 0.64-0.694h0.001l0.024-0.002 0.082-0.004 0.926-0.043v-4.258c0-3.141 2.555-5.695 5.695-5.695h16.667c3.14 0 5.695 2.555 5.695 5.695zM3.369 26.971h25.27v-2.171l0.009-8.105h-25.279v10.276zM3.369 15.305h11.943v-8.61h-11.943v8.61zM16.702 15.305h11.943v-8.61h-11.943v8.61zM3.112 5.305h25.789l-0.851-1.461c-0.741-1.27-2.114-2.149-3.709-2.149h-16.667c-1.594 0-2.969 0.879-3.709 2.149l-0.853 1.461z"></path>
</symbol>
<symbol id="icon-key-directions-8" viewBox="0 0 39 32">
<path d="M34.588 16.927h-34.245v-1.854h34.245l-13.058-13.058 1.31-1.31 15.295 15.294-15.295 15.295-1.31-1.31 13.058-13.058z"></path>
</symbol>
<symbol id="icon-logo" viewBox="0 0 262 32">
<path fill="#f2353f" style="fill: var(--color1, #f2353f)" d="M180.293 31.995c2.054 0 3.718-1.665 3.718-3.718 0-0.001 0-0.001 0-0.002v0-13.398l6.698 8.928c0.686 0.907 1.763 1.488 2.975 1.488 2.054 0 3.719-1.665 3.719-3.719 0-0.841-0.279-1.617-0.75-2.241l0.007 0.009-13.392-17.854c-0.685-0.91-1.763-1.492-2.978-1.492-2.053 0-3.717 1.664-3.717 3.717 0 0.003 0 0.005 0 0.008v-0 24.555c0 2.055 1.666 3.72 3.72 3.72v0zM7.438 28.275v-24.555c0-2.054-1.665-3.719-3.719-3.719s-3.719 1.665-3.719 3.719v0 24.555c0 2.054 1.665 3.719 3.719 3.719s3.719-1.665 3.719-3.719v0zM55.414 31.352c0.989-0.678 1.63-1.803 1.63-3.077 0-0.78-0.24-1.504-0.651-2.102l0.008 0.013-5.589-8.23c-0.678-0.989-1.803-1.63-3.077-1.63-2.054 0-3.719 1.665-3.719 3.719 0 0.78 0.24 1.504 0.651 2.102l-0.008-0.013 5.589 8.229c0.677 0.991 1.802 1.632 3.076 1.632 0.78 0 1.505-0.241 2.102-0.652l-0.013 0.008zM35.344 31.994c-2.053-0.001-3.717-1.665-3.717-3.718 0 0 0 0 0 0v0-24.555c0-2.054 1.665-3.718 3.718-3.718s3.718 1.665 3.718 3.718v0 24.555c0 2.054-1.665 3.718-3.718 3.718v0zM82.954 28.242c0-2.054-1.665-3.718-3.718-3.718v0c-4.717-0.005-8.539-3.827-8.544-8.544v-0c0.006-4.715 3.828-8.536 8.544-8.541h0c2.054 0 3.719-1.665 3.719-3.719s-1.665-3.719-3.719-3.719v0c-8.811 0-15.981 7.168-15.981 15.981 0 8.811 7.168 15.981 15.981 15.981 2.054 0 3.718-1.665 3.718-3.718 0-0.001 0-0.001 0-0.002v0zM258.315 31.994c-0.002 0-0.003 0-0.005 0-1.082 0-2.056-0.463-2.735-1.202l-0.002-0.003-22.507-24.555c-0.606-0.66-0.978-1.543-0.978-2.514 0-2.055 1.666-3.72 3.72-3.72 1.084 0 2.060 0.464 2.74 1.204l0.002 0.003 22.506 24.555c0.608 0.66 0.98 1.544 0.98 2.515 0 2.053-1.664 3.717-3.717 3.717-0.002 0-0.003 0-0.005 0h0zM159.259 28.242c0-2.054-1.665-3.718-3.718-3.718v0c-4.716-0.005-8.538-3.828-8.542-8.544v-0c0.006-4.715 3.828-8.536 8.544-8.541h0c2.054 0 3.719-1.665 3.719-3.719s-1.665-3.719-3.719-3.719v0c-8.813 0-15.981 7.168-15.981 15.981 0 8.811 7.168 15.981 15.979 15.981 0 0 0.001 0 0.002 0 2.054 0 3.718-1.665 3.718-3.718 0-0.001 0-0.001 0-0.002v0zM225.538 28.275v-24.555c0-2.054-1.665-3.719-3.719-3.719s-3.719 1.665-3.719 3.719v0 24.555c0.043 2.021 1.692 3.643 3.719 3.643s3.676-1.622 3.719-3.639l0-0.004zM103.997 31.995c0 0 0.001 0 0.002 0 2.054 0 3.718-1.665 3.718-3.718 0-0.001 0-0.001 0-0.002v0-13.398l6.696 8.928c0.686 0.908 1.763 1.488 2.976 1.488 2.054 0 3.72-1.665 3.72-3.72 0-0.841-0.279-1.617-0.75-2.241l0.007 0.009-13.394-17.854c-0.686-0.908-1.763-1.489-2.976-1.489-2.054 0-3.718 1.665-3.718 3.718 0 0.001 0 0.002 0 0.003v-0 24.555c0 0 0 0.001 0 0.002 0 2.054 1.665 3.718 3.718 3.718v0z"></path>
<path fill="#5d626a" style="fill: var(--color2, #5d626a)" d="M207.062 32c-2.053-0.002-3.717-1.667-3.717-3.72 0-0.001 0-0.002 0-0.003v0l0.013-13.398-6.706 8.923c-0.686 0.906-1.762 1.484-2.973 1.484-2.054 0-3.719-1.665-3.719-3.719 0-0.843 0.28-1.62 0.753-2.244l-0.007 0.009 13.408-17.842c0.686-0.906 1.762-1.485 2.973-1.485 2.054 0 3.718 1.665 3.718 3.718 0 0.001 0 0.002 0 0.003v-0l-0.022 24.557c-0.002 2.052-1.666 3.715-3.718 3.715-0.001 0-0.002 0-0.003 0h0zM48.408 23.702c5.603-1.057 9.784-5.913 9.784-11.746 0-0.003 0-0.006 0-0.008v0c0-6.589-5.36-11.949-11.952-11.949h-10.896c-2.054 0-3.72 1.665-3.72 3.72s1.666 3.72 3.72 3.72v0h10.896c2.49 0.003 4.507 2.019 4.512 4.508v0c0 2.179-1.552 4.045-3.688 4.438-1.745 0.329-3.047 1.841-3.047 3.658 0 2.054 1.665 3.719 3.719 3.719 0.237 0 0.469-0.022 0.694-0.065l-0.023 0.004zM238.55 30.787l22.506-24.555c0.57-0.65 0.918-1.508 0.918-2.447 0-2.054-1.666-3.72-3.72-3.72-1.053 0-2.004 0.438-2.681 1.141l-0.001 0.001-22.507 24.554c-0.582 0.654-0.938 1.52-0.938 2.469 0 2.055 1.666 3.72 3.72 3.72 1.064 0 2.023-0.446 2.701-1.162l0.002-0.002zM171.523 15.981c0-8.811-7.17-15.981-15.981-15.981-2.054 0-3.72 1.665-3.72 3.72s1.666 3.72 3.72 3.72v0c4.715 0.005 8.536 3.826 8.542 8.54v0.001c-0.005 4.716-3.827 8.537-8.542 8.542h-0.001c-2.054 0-3.719 1.665-3.719 3.719s1.665 3.719 3.719 3.719v0c8.811 0 15.981-7.17 15.981-15.981zM95.216 15.981c0-8.813-7.171-15.981-15.982-15.981-2.055 0-3.72 1.665-3.72 3.72s1.665 3.72 3.72 3.72v0c4.715 0.005 8.536 3.826 8.542 8.54v0.001c-0.005 4.716-3.828 8.538-8.544 8.542h-0c-2.054 0-3.719 1.665-3.719 3.719s1.665 3.719 3.719 3.719v0c8.813 0 15.981-7.17 15.981-15.981zM26.565 11.949c0-6.589-5.36-11.949-11.949-11.949h-10.896c-2.054 0-3.72 1.665-3.72 3.72s1.665 3.72 3.72 3.72v0h10.896c2.49 0.003 4.507 2.019 4.512 4.508v0c-0.003 2.491-2.021 4.509-4.512 4.512h-10.896c-2.054 0-3.719 1.665-3.719 3.719s1.665 3.719 3.719 3.719v0h10.896c6.589 0 11.949-5.36 11.949-11.95zM130.765 32c-2.052-0.002-3.715-1.666-3.715-3.718 0-0.002 0-0.003 0-0.005v0l0.013-13.398-6.706 8.923c-0.686 0.906-1.762 1.485-2.974 1.485-2.054 0-3.72-1.665-3.72-3.72 0-0.843 0.28-1.62 0.753-2.244l-0.007 0.009 13.408-17.842c0.686-0.908 1.763-1.489 2.976-1.489 2.054 0 3.718 1.665 3.718 3.718 0 0.003 0 0.005 0 0.008v-0l-0.022 24.557c-0.002 2.052-1.666 3.715-3.718 3.715-0.002 0-0.005 0-0.007 0h0z"></path>
<path fill="#1f2c37" style="fill: var(--color3, #1f2c37)" d="M196.658 19.342h0.002l-2.974-3.968-2.976 3.968h0.003c-0.465 0.614-0.746 1.391-0.746 2.234 0 2.054 1.665 3.718 3.718 3.718s3.718-1.665 3.718-3.718c0-0.842-0.28-1.619-0.752-2.243l0.007 0.009zM50.814 17.957c-1.398-2.134-4.65-2.141-6.075-0.107-0.891 1.184-0.958 2.912-0.157 4.158 1.984 3.19 6.368 1.272 8.706-0.408l-2.474-3.643zM3.718 7.44h3.722v-3.722c0-2.054-1.665-3.718-3.718-3.718s-3.718 1.665-3.718 3.718c0 2.053 1.664 3.717 3.717 3.718h0zM3.718 23.899h3.722v-7.438h-3.722c-2.054 0-3.719 1.665-3.719 3.719s1.665 3.719 3.719 3.719v0zM247.061 21.501l5.045-5.504-5.045-5.504-5.045 5.504 5.045 5.504zM79.235 7.44c2.055 0 3.72-1.665 3.72-3.72s-1.665-3.72-3.72-3.72v0c-2.055 0-3.72 1.665-3.72 3.72s1.665 3.72 3.72 3.72v0zM79.235 31.962c2.054 0 3.719-1.665 3.719-3.719s-1.665-3.719-3.719-3.719v0c-2.054 0-3.719 1.665-3.719 3.719s1.665 3.719 3.719 3.719v0zM155.542 7.44c2.054 0 3.72-1.665 3.72-3.72s-1.666-3.72-3.72-3.72v0c-2.054 0-3.72 1.665-3.72 3.72s1.666 3.72 3.72 3.72v0zM155.542 31.962c2.054 0 3.719-1.665 3.719-3.719s-1.665-3.719-3.719-3.719v0c-2.054 0-3.719 1.665-3.719 3.719s1.665 3.719 3.719 3.719v0zM35.344 7.44h3.72v-3.722c0-2.054-1.665-3.718-3.718-3.718s-3.718 1.665-3.718 3.718c0 2.054 1.665 3.718 3.718 3.718v0zM120.362 19.342l-2.974-3.968-2.976 3.968h0.003c-0.465 0.614-0.746 1.391-0.746 2.234 0 2.054 1.665 3.718 3.718 3.718s3.718-1.665 3.718-3.718c0-0.842-0.28-1.619-0.752-2.243l0.007 0.009z"></path>
</symbol>
<symbol id="icon-search" viewBox="0 0 32 32">
<path d="M13.334 26.666c3.091-0.001 5.934-1.059 8.188-2.834l-0.028 0.022 7.328 7.326 2.356-2.356-7.326-7.328c1.754-2.226 2.813-5.070 2.814-8.162v0c-0.008-7.36-5.972-13.325-13.331-13.334h-0.001c-7.361 0.008-13.326 5.973-13.334 13.333v0.001c0.009 7.36 5.974 13.324 13.333 13.332h0.001zM13.334 3.334c5.514 0 10 4.484 10 10 0 5.514-4.486 10-10 10-5.516 0-10-4.486-10-10 0-5.516 4.484-10 10-10z"></path>
</symbol>
</defs>
</svg>
