<svg aria-hidden="true" style="position: absolute; width: 0; height: 0; overflow: hidden;" version="1.1" xmlns="http://www.w3.org/2000/svg" xmlns:xlink="http://www.w3.org/1999/xlink">
<defs>
<symbol id="icon-key-directions-1" viewBox="0 0 32 32">
<path d="M16.197 3.409l12.235 8.117c0.107 0.069 0.177 0.187 0.177 0.322v8.24c0 0.001 0 0.001 0 0.002 0 0.080-0.025 0.154-0.068 0.214v0c-0.029 0.043-0.066 0.078-0.109 0.105l-0.008 0.004-12.237 8.121c-0.057 0.040-0.128 0.063-0.204 0.063-0.002 0-0.004 0-0.006 0v0c-0.001 0-0.001 0-0.002 0-0.077 0-0.149-0.024-0.208-0.065l0.001 0.001-0.005-0.003-12.223-8.112c-0.128-0.085-0.19-0.188-0.19-0.342v-8.227c0-0.002 0-0.004 0-0.006 0-0.076 0.023-0.146 0.063-0.204l-0.001 0.001c0.028-0.042 0.063-0.076 0.104-0.103l0.012-0.007 12.241-8.124c0.104-0.072 0.314-0.073 0.421 0.001l0.005 0.003zM22.065 15.488l5.487-3.641-11.198-7.429v7.229l5.711 3.841zM15.605 11.648v-7.229l-11.195 7.43 5.484 3.639 5.711-3.84zM9.22 15.944l-5.113-3.394v6.834l5.113-3.44zM4.405 20.090l11.2 7.43v-7.337l-5.708-3.788-5.492 3.696zM10.574 15.938l5.404 3.59 5.409-3.59-5.409-3.637-5.404 3.637zM16.356 20.181v7.339l11.198-7.431-5.488-3.696-5.71 3.787zM22.742 15.944l5.114 3.439v-6.832l-5.115 3.394z"></path>
</symbol>
<symbol id="icon-key-directions-2" viewBox="0 0 32 32">
<path d="M24.236 10.934h-5.874v-1.189h5.874v1.189z"></path>
<path d="M8.188 25.99v-5.145h-2.641c-1.043-0.002-1.888-0.847-1.889-1.889v-10.248c0-1.776 1.447-3.223 3.223-3.223h18.666c1.776 0 3.223 1.447 3.223 3.223v10.248c-0.002 1.043-0.847 1.888-1.889 1.889h-2.644v5.145c0 0.491-0.401 0.891-0.891 0.891h-14.266c-0.492-0.001-0.89-0.4-0.891-0.891v0zM24.236 15.063v4.67h3.421v-11.024c-0.001-1.165-0.945-2.11-2.111-2.111h-18.667c-1.165 0.001-2.11 0.945-2.111 2.111v11.025h3.418v-4.671c0-0.491 0.4-0.892 0.891-0.892h14.265c0.491 0 0.891 0.4 0.891 0.891zM9.217 15.2v10.653h13.992l-0.002-10.653h-13.99z"></path>
<path d="M13.927 20.785l1.143 1.524 2.286-3.048 2.971 3.962h-8.229l1.829-2.438z"></path>
</symbol>
<symbol id="icon-key-directions-3" viewBox="0 0 32 32">
<path d="M8.777 16.777h6.446v1.112h-6.446v-1.112zM8.777 22.111h6.446v1.112h-6.446v-1.112z"></path>
<path d="M26.666 20.556h-6.11v6.11c-0.002 1.043-0.847 1.888-1.89 1.89h-13.333c-1.043-0.002-1.888-0.847-1.89-1.89v-13.333c0.002-1.043 0.846-1.888 1.889-1.89h6.111v-6.111c0.002-1.043 0.847-1.888 1.889-1.889h13.334c1.043 0.002 1.888 0.846 1.89 1.889v13.334c-0.002 1.043-0.847 1.888-1.89 1.89v0zM4.556 12.556v14.887h14.89l-0.003-14.888h-14.887zM20.556 19.444h6.887v-14.887h-14.887v6.887h6.11c1.043 0.002 1.888 0.846 1.89 1.889v6.111z"></path>
</symbol>
<symbol id="icon-key-directions-4" viewBox="0 0 32 32">
<path d="M8.777 10.111h0.902v11.779h-0.902v-11.779zM16.965 10.111h0.924v11.779h-0.923v-11.779z"></path>
<path d="M23.223 5.333v3.444h3.444c1.043 0.002 1.888 0.847 1.89 1.89v10.667c-0.002 1.043-0.847 1.888-1.89 1.889h-3.444v2.111c0 1.776-1.447 3.223-3.223 3.223h-13.334c-1.776 0-3.223-1.447-3.223-3.223v-20c0-0.307 0.249-0.556 0.556-0.556h18.666c0.308 0 0.556 0.249 0.556 0.556zM22.111 25.334v-19.444h-17.554v19.444c0.001 1.165 0.945 2.109 2.11 2.11h13.334c1.165-0.001 2.11-0.945 2.111-2.11v0zM23.223 22.111h4.221v-12.221h-4.221v12.221z"></path>
</symbol>
<symbol id="icon-key-directions-5" viewBox="0 0 32 32">
<path d="M8.777 16.777h3.779v1.112h-3.779v-1.112z"></path>
<path d="M26.666 23.223h-6.887l2.866 3.822-0.89 0.667-3.367-4.489h-4.777l-3.367 4.489-0.89-0.667 2.866-3.822h-6.888c-1.043-0.002-1.888-0.847-1.889-1.889v-14.667c0.002-1.043 0.847-1.888 1.889-1.889h21.334c1.043 0.002 1.888 0.847 1.89 1.89v14.667c-0.002 1.043-0.847 1.888-1.89 1.889v0zM4.556 5.89v16.221h22.889l-0.002-16.221h-22.887z"></path>
</symbol>
<symbol id="icon-key-directions-6" viewBox="0 0 32 32">
<path d="M19.12 16.059c0 0 0 0 0 0 0.84 0 1.521-0.681 1.521-1.521v-1.425h-3.042v1.425c0 0.84 0.681 1.521 1.521 1.521 0 0 0 0 0 0v0z"></path>
<path d="M10.965 4.285l-0.096 0.031c-1.838 0.594-5.445 1.776-7.198 2.351l-0.094 0.031c-0.533 0.179-0.911 0.674-0.911 1.257 0 0.002 0 0.005 0 0.007v0 4.955c0 0 0 0 0 0 0 0.736 0.597 1.333 1.333 1.333 0.115 0 0.226-0.014 0.332-0.042l-0.009 0.002 3.677-0.919v13.418c0 0 0 0 0 0 0 0.736 0.597 1.333 1.333 1.333 0 0 0 0 0 0h13.333c0 0 0 0 0 0 0.736 0 1.333-0.597 1.333-1.333 0 0 0 0 0 0v0-13.418l3.677 0.919c0.841 0.21 1.656-0.426 1.656-1.294v-4.955c0-0.576-0.363-1.084-0.912-1.264-1.714-0.562-5.419-1.776-7.29-2.382l-0.096-0.031c-0.61-0.197-1.003-0.322-1.033-0.327h-0.002c0 0.393-0.057 0.773-0.162 1.131l-0.004 0.012c-0.509 1.666-2.032 2.857-3.834 2.857s-3.326-1.191-3.827-2.829l-0.007-0.028-0.004-0.012c-0.103-0.337-0.162-0.725-0.162-1.126 0-0.002 0-0.003 0-0.005v0h-0.002c-0.030 0.005-0.423 0.13-1.033 0.327zM22.976 6.118c1.811 0.591 3.916 1.281 5.089 1.665 0.073 0.024 0.125 0.092 0.125 0.172 0 0.002 0 0.005 0 0.007v0 4.955c0 0.125-0.116 0.215-0.235 0.185l-5.098-1.274v14.882c0 0.106-0.085 0.191-0.191 0.191h-13.334c0 0 0 0 0 0-0.105 0-0.19-0.085-0.19-0.19 0 0 0 0 0 0v0-14.882l-5.098 1.274c-0.014 0.003-0.029 0.005-0.045 0.005-0.105 0-0.19-0.085-0.19-0.19v0-4.955c0-0.089 0.052-0.154 0.124-0.178l0.094-0.031c1.19-0.39 3.232-1.059 4.996-1.634 0.769-0.251 1.485-0.484 2.053-0.668 0.64 2.113 2.602 3.651 4.923 3.651s4.283-1.538 4.923-3.651c0.568 0.184 1.284 0.417 2.053 0.668z"></path>
</symbol>
<symbol id="icon-key-directions-7" viewBox="0 0 32 32">
<path d="M11.223 20.667c0 0.675-0.547 1.223-1.223 1.223s-1.223-0.547-1.223-1.223v0c0-0.675 0.547-1.223 1.223-1.223s1.223 0.547 1.223 1.223v0zM23.223 20.667c0 0.675-0.547 1.223-1.223 1.223s-1.223-0.547-1.223-1.223v0c0-0.675 0.547-1.223 1.223-1.223s1.223 0.547 1.223 1.223v0z"></path>
<path d="M27.228 8v3.34l0.703 0.067c0.136 0.013 0.262 0.044 0.363 0.099 0.085 0.048 0.169 0.12 0.23 0.267 0.032 0.079 0.046 0.165 0.039 0.254l-0.002 0.028v2.612c0 0.307-0.249 0.556-0.556 0.556h-0.777v8.777c0 0.689-0.378 1.294-0.952 1.627l-0.387 0.225v2.149c0 0.308-0.248 0.556-0.556 0.556h-1.333c0 0-0.001 0-0.001 0-0.306 0-0.555-0.248-0.555-0.555 0 0 0-0.001 0-0.001v0-2.11h-14.887v2.11c0 0.308-0.248 0.556-0.556 0.556h-1.333c0 0-0.001 0-0.001 0-0.306 0-0.555-0.248-0.555-0.555 0 0 0-0.001 0-0.001v0-2.151l-0.384-0.225c-0.569-0.334-0.944-0.937-0.944-1.623v-8.778h-0.782c0 0 0 0 0 0-0.307 0-0.556-0.249-0.556-0.556 0 0 0 0 0 0v0-2.667c0-0.292 0.223-0.532 0.512-0.555h0.001l0.019-0.001 0.807-0.037v-3.406c0-2.512 2.044-4.556 4.556-4.556h13.334c2.512 0 4.556 2.044 4.556 4.556zM5.895 24.777h20.216v-1.737l0.007-6.484h-20.223v8.221zM5.895 15.444h9.554v-6.888h-9.554v6.888zM16.561 15.444h9.554v-6.888h-9.554v6.888zM5.69 7.444h20.631l-0.681-1.169c-0.592-1.016-1.691-1.719-2.967-1.719h-13.334c-1.275 0-2.375 0.703-2.967 1.719l-0.682 1.169z"></path>
</symbol>
<symbol id="icon-key-directions-8" viewBox="0 0 32 32">
<path d="M25.324 16.556h-20.547v-1.112h20.547l-7.835-7.835 0.786-0.786 9.177 9.177-9.178 9.177-0.786-0.786 7.834-7.834z"></path>
</symbol>
<symbol id="icon-logo" viewBox="0 0 262 32">
<path fill="#f2353f" style="fill: var(--color1, #f2353f)" d="M180.293 31.995c2.054 0 3.718-1.665 3.718-3.718 0-0.001 0-0.001 0-0.002v0-13.398l6.698 8.928c0.686 0.907 1.763 1.488 2.975 1.488 2.054 0 3.719-1.665 3.719-3.719 0-0.841-0.279-1.617-0.75-2.241l0.007 0.009-13.392-17.854c-0.685-0.91-1.763-1.492-2.978-1.492-2.053 0-3.717 1.664-3.717 3.717 0 0.003 0 0.005 0 0.008v-0 24.555c0 2.055 1.666 3.72 3.72 3.72v0zM7.438 28.275v-24.555c0-2.054-1.665-3.719-3.719-3.719s-3.719 1.665-3.719 3.719v0 24.555c0 2.054 1.665 3.719 3.719 3.719s3.719-1.665 3.719-3.719v0zM55.414 31.352c0.989-0.678 1.63-1.803 1.63-3.077 0-0.78-0.24-1.504-0.651-2.102l0.008 0.013-5.589-8.23c-0.678-0.989-1.803-1.63-3.077-1.63-2.054 0-3.719 1.665-3.719 3.719 0 0.78 0.24 1.504 0.651 2.102l-0.008-0.013 5.589 8.229c0.677 0.991 1.802 1.632 3.076 1.632 0.78 0 1.505-0.241 2.102-0.652l-0.013 0.008zM35.344 31.994c-2.053-0.001-3.717-1.665-3.717-3.718 0 0 0 0 0 0v0-24.555c0-2.054 1.665-3.718 3.718-3.718s3.718 1.665 3.718 3.718v0 24.555c0 2.054-1.665 3.718-3.718 3.718v0zM82.954 28.242c0-2.054-1.665-3.718-3.718-3.718v0c-4.717-0.005-8.539-3.827-8.544-8.544v-0c0.006-4.715 3.828-8.536 8.544-8.541h0c2.054 0 3.719-1.665 3.719-3.719s-1.665-3.719-3.719-3.719v0c-8.811 0-15.981 7.168-15.981 15.981 0 8.811 7.168 15.981 15.981 15.981 2.054 0 3.718-1.665 3.718-3.718 0-0.001 0-0.001 0-0.002v0zM258.315 31.994c-0.002 0-0.003 0-0.005 0-1.082 0-2.056-0.463-2.735-1.202l-0.002-0.003-22.507-24.555c-0.606-0.66-0.978-1.543-0.978-2.514 0-2.055 1.666-3.72 3.72-3.72 1.084 0 2.060 0.464 2.74 1.204l0.002 0.003 22.506 24.555c0.608 0.66 0.98 1.544 0.98 2.515 0 2.053-1.664 3.717-3.717 3.717-0.002 0-0.003 0-0.005 0h0zM159.259 28.242c0-2.054-1.665-3.718-3.718-3.718v0c-4.716-0.005-8.538-3.828-8.542-8.544v-0c0.006-4.715 3.828-8.536 8.544-8.541h0c2.054 0 3.719-1.665 3.719-3.719s-1.665-3.719-3.719-3.719v0c-8.813 0-15.981 7.168-15.981 15.981 0 8.811 7.168 15.981 15.979 15.981 0 0 0.001 0 0.002 0 2.054 0 3.718-1.665 3.718-3.718 0-0.001 0-0.001 0-0.002v0zM225.538 28.275v-24.555c0-2.054-1.665-3.719-3.719-3.719s-3.719 1.665-3.719 3.719v0 24.555c0.043 2.021 1.692 3.643 3.719 3.643s3.676-1.622 3.719-3.639l0-0.004zM103.997 31.995c0 0 0.001 0 0.002 0 2.054 0 3.718-1.665 3.718-3.718 0-0.001 0-0.001 0-0.002v0-13.398l6.696 8.928c0.686 0.908 1.763 1.488 2.976 1.488 2.054 0 3.72-1.665 3.72-3.72 0-0.841-0.279-1.617-0.75-2.241l0.007 0.009-13.394-17.854c-0.686-0.908-1.763-1.489-2.976-1.489-2.054 0-3.718 1.665-3.718 3.718 0 0.001 0 0.002 0 0.003v-0 24.555c0 0 0 0.001 0 0.002 0 2.054 1.665 3.718 3.718 3.718v0z"></path>
<path fill="#5d626a" style="fill: var(--color2, #5d626a)" d="M207.062 32c-2.053-0.002-3.717-1.667-3.717-3.72 0-0.001 0-0.002 0-0.003v0l0.013-13.398-6.706 8.923c-0.686 0.906-1.762 1.484-2.973 1.484-2.054 0-3.719-1.665-3.719-3.719 0-0.843 0.28-1.62 0.753-2.244l-0.007 0.009 13.408-17.842c0.686-0.906 1.762-1.485 2.973-1.485 2.054 0 3.718 1.665 3.718 3.718 0 0.001 0 0.002 0 0.003v-0l-0.022 24.557c-0.002 2.052-1.666 3.715-3.718 3.715-0.001 0-0.002 0-0.003 0h0zM48.408 23.702c5.603-1.057 9.784-5.913 9.784-11.746 0-0.003 0-0.006 0-0.008v0c0-6.589-5.36-11.949-11.952-11.949h-10.896c-2.054 0-3.72 1.665-3.72 3.72s1.666 3.72 3.72 3.72v0h10.896c2.49 0.003 4.507 2.019 4.512 4.508v0c0 2.179-1.552 4.045-3.688 4.438-1.745 0.329-3.047 1.841-3.047 3.658 0 2.054 1.665 3.719 3.719 3.719 0.237 0 0.469-0.022 0.694-0.065l-0.023 0.004zM238.55 30.787l22.506-24.555c0.57-0.65 0.918-1.508 0.918-2.447 0-2.054-1.666-3.72-3.72-3.72-1.053 0-2.004 0.438-2.681 1.141l-0.001 0.001-22.507 24.554c-0.582 0.654-0.938 1.52-0.938 2.469 0 2.055 1.666 3.72 3.72 3.72 1.064 0 2.023-0.446 2.701-1.162l0.002-0.002zM171.523 15.981c0-8.811-7.17-15.981-15.981-15.981-2.054 0-3.72 1.665-3.72 3.72s1.666 3.72 3.72 3.72v0c4.715 0.005 8.536 3.826 8.542 8.54v0.001c-0.005 4.716-3.827 8.537-8.542 8.542h-0.001c-2.054 0-3.719 1.665-3.719 3.719s1.665 3.719 3.719 3.719v0c8.811 0 15.981-7.17 15.981-15.981zM95.216 15.981c0-8.813-7.171-15.981-15.982-15.981-2.055 0-3.72 1.665-3.72 3.72s1.665 3.72 3.72 3.72v0c4.715 0.005 8.536 3.826 8.542 8.54v0.001c-0.005 4.716-3.828 8.538-8.544 8.542h-0c-2.054 0-3.719 1.665-3.719 3.719s1.665 3.719 3.719 3.719v0c8.813 0 15.981-7.17 15.981-15.981zM26.565 11.949c0-6.589-5.36-11.949-11.949-11.949h-10.896c-2.054 0-3.72 1.665-3.72 3.72s1.665 3.72 3.72 3.72v0h10.896c2.49 0.003 4.507 2.019 4.512 4.508v0c-0.003 2.491-2.021 4.509-4.512 4.512h-10.896c-2.054 0-3.719 1.665-3.719 3.719s1.665 3.719 3.719 3.719v0h10.896c6.589 0 11.949-5.36 11.949-11.95zM130.765 32c-2.052-0.002-3.715-1.666-3.715-3.718 0-0.002 0-0.003 0-0.005v0l0.013-13.398-6.706 8.923c-0.686 0.906-1.762 1.485-2.974 1.485-2.054 0-3.72-1.665-3.72-3.72 0-0.843 0.28-1.62 0.753-2.244l-0.007 0.009 13.408-17.842c0.686-0.908 1.763-1.489 2.976-1.489 2.054 0 3.718 1.665 3.718 3.718 0 0.003 0 0.005 0 0.008v-0l-0.022 24.557c-0.002 2.052-1.666 3.715-3.718 3.715-0.002 0-0.005 0-0.007 0h0z"></path>
<path fill="#1f2c37" style="fill: var(--color3, #1f2c37)" d="M196.658 19.342h0.002l-2.974-3.968-2.976 3.968h0.003c-0.465 0.614-0.746 1.391-0.746 2.234 0 2.054 1.665 3.718 3.718 3.718s3.718-1.665 3.718-3.718c0-0.842-0.28-1.619-0.752-2.243l0.007 0.009zM50.814 17.957c-1.398-2.134-4.65-2.141-6.075-0.107-0.447 0.607-0.716 1.37-0.716 2.196 0 0.727 0.208 1.405 0.568 1.978l-0.009-0.015c1.984 3.19 6.368 1.272 8.706-0.408l-2.474-3.643zM3.718 7.44h3.722v-3.722c0-2.054-1.665-3.718-3.718-3.718s-3.718 1.665-3.718 3.718c0 2.053 1.664 3.717 3.717 3.718h0zM3.718 23.899h3.722v-7.438h-3.722c-2.054 0-3.719 1.665-3.719 3.719s1.665 3.719 3.719 3.719v0zM247.061 21.501l5.045-5.504-5.045-5.504-5.045 5.504 5.045 5.504zM79.235 7.44c2.055 0 3.72-1.665 3.72-3.72s-1.665-3.72-3.72-3.72v0c-2.055 0-3.72 1.665-3.72 3.72s1.665 3.72 3.72 3.72v0zM79.235 31.962c2.054 0 3.719-1.665 3.719-3.719s-1.665-3.719-3.719-3.719v0c-2.054 0-3.719 1.665-3.719 3.719s1.665 3.719 3.719 3.719v0zM155.542 7.44c2.054 0 3.72-1.665 3.72-3.72s-1.666-3.72-3.72-3.72v0c-2.054 0-3.72 1.665-3.72 3.72s1.666 3.72 3.72 3.72v0zM155.542 31.962c2.054 0 3.719-1.665 3.719-3.719s-1.665-3.719-3.719-3.719v0c-2.054 0-3.719 1.665-3.719 3.719s1.665 3.719 3.719 3.719v0zM35.344 7.44h3.72v-3.722c0-2.054-1.665-3.718-3.718-3.718s-3.718 1.665-3.718 3.718c0 2.054 1.665 3.718 3.718 3.718v0zM120.362 19.342l-2.974-3.968-2.976 3.968h0.003c-0.465 0.614-0.746 1.391-0.746 2.234 0 2.054 1.665 3.718 3.718 3.718s3.718-1.665 3.718-3.718c0-0.842-0.28-1.619-0.752-2.243l0.007 0.009z"></path>
</symbol>
<symbol id="icon-plus-23" viewBox="0 0 32 32">
<path stroke-linejoin="miter" stroke-linecap="butt" stroke-miterlimit="4" stroke-width="1.3913" d="M16 0v32M0 16h32"></path>
</symbol>
<symbol id="icon-search" viewBox="0 0 32 32">
<path d="M13.334 26.666c0.005 0 0.012 0 0.018 0 3.098 0 5.946-1.068 8.197-2.855l-0.027 0.021-0.028 0.022 7.328 7.326 2.356-2.356-7.326-7.328c1.754-2.216 2.814-5.052 2.814-8.136 0-0.009 0-0.018 0-0.028v0.001c-0.008-7.36-5.972-13.325-13.331-13.334h-0.001c-7.361 0.008-13.326 5.973-13.334 13.333v0.001c0.009 7.36 5.974 13.324 13.333 13.332h0.001zM13.334 3.334c5.514 0 10 4.484 10 10 0 5.514-4.486 10-10 10-5.516 0-10-4.486-10-10 0-5.516 4.484-10 10-10z"></path>
</symbol>
</defs>
</svg>
